<svg width="44" height="44" viewBox="0 0 44 44" fill="none" xmlns="http://www.w3.org/2000/svg">
<circle cx="22" cy="22" r="21" stroke="black" stroke-width="2"/>
<path d="M31.8957 14.6964L29.3645 14.7178L26.6473 24.2685L27.6016 27.0379L28.4277 27.0309L31.8957 14.6964ZM27.4049 18.004L26.4115 14.7428L23.8803 14.7642C23.8923 14.7993 24.6326 17.1954 26.1011 21.9527L26.2769 21.9512L27.4049 18.004ZM22.6517 27.0797L22.5881 19.2753L22.4299 19.2767L20.1551 24.8684L20.1733 27.1007L22.6517 27.0797ZM22.5646 16.3926L22.5515 14.7755L20.6179 14.7918L17.327 22.9586L15.4295 18.7734L15.2537 18.7749L15.3003 24.4876L16.4996 27.1318L18.2046 27.1174L22.5646 16.3926ZM14.3727 27.1498L14.2725 14.8455L11.794 14.8665L11.8943 27.1708L14.3727 27.1498Z" fill="#FF6B6B"/>
</svg>
