<svg width="25" height="15" viewBox="0 0 25 15" fill="none" xmlns="http://www.w3.org/2000/svg">
    <path d="M25 0L21.852 0.0257332L18.4727 11.5101L19.6595 14.8402L20.6869 14.8318L25 0ZM19.4149 3.97727L18.1794 0.0557944L15.0314 0.0815276C15.0464 0.123734 15.9671 3.00495 17.7934 8.72543L18.012 8.72363L19.4149 3.97727ZM13.5035 14.8905L13.4244 5.50596L13.2276 5.50764L10.3985 12.2315L10.4211 14.9157L13.5035 14.8905ZM13.3951 2.03962L13.3788 0.0951155L10.9741 0.114715L6.88126 9.93499L4.52138 4.90244L4.30275 4.90424L4.3607 11.7736L5.85224 14.9531L7.97271 14.9358L13.3951 2.03962ZM3.20707 14.9747L3.08245 0.179288L0 0.204539L0.124742 15L3.20707 14.9747Z"
          fill="#FF6B6B"/>
</svg>
